<?xml version="1.0" encoding="utf-8"?>
<!-- Generator: Adobe Illustrator 25.3.1, SVG Export Plug-In . SVG Version: 6.00 Build 0)  -->
<svg version="1.1" id="Layer_1" xmlns="http://www.w3.org/2000/svg" xmlns:xlink="http://www.w3.org/1999/xlink" x="0px" y="0px"
	 viewBox="0 0 100 100" style="enable-background:new 0 0 100 100;" xml:space="preserve">
<style type="text/css">
	.st0{fill:#FFFFFF;}
</style>
<g>
	<path class="st0" d="M52,95.5c-14.4,0-28.3-6.9-36.4-18.1c-7-9.7-8.3-18.6-8.1-24.4C8.2,32.9,26.6,10.5,52,10.5
		c24.5,0,44.5,19.1,44.5,42.5S76.5,95.5,52,95.5z"/>
	<path d="M52,11c24.3,0,44,18.8,44,42S76.3,95,52,95c-14.2,0-28-6.9-36-17.9C9,67.6,7.8,58.7,8,53c0.3-9.9,5.1-20.5,12.9-28.5
		C29.4,15.8,40.4,11,52,11 M52,10C26.5,10,7.7,32.6,7,53c-0.4,12.6,6.2,22,8.2,24.7C23.9,89.7,38.3,96,52,96c24.9,0,45-19.3,45-43
		S76.9,10,52,10L52,10z"/>
</g>
<g>
	<path d="M51,94.5c-17,0-30.3-10.3-34.6-16.8c-0.7-1-0.8-2.1-0.4-3.2c1.3-3.5,8-7.2,17.3-9.6c0.8-0.2,1.4-0.3,2-0.3
		c1,0,1.6,0.3,2.5,0.9c1.8,1,4.4,2.5,12.2,3.1c1.1,0.1,2.1,0.1,3,0.1c5.3,0,7.7-1.2,9.8-2.2c1.5-0.8,2.8-1.4,5-1.5
		c0.1,0,0.2,0,0.3,0c5.3,0,17.6,6.5,19.7,11.3c0.5,1,0.4,1.9-0.2,2.5C82.5,84.6,70.8,94.5,51,94.5z"/>
	<path d="M35.3,65.1c0.8,0,1.3,0.3,2.2,0.8c1.8,1,4.5,2.6,12.4,3.1c1.1,0.1,2.1,0.1,3.1,0.1c5.4,0,7.8-1.2,10-2.3
		c1.5-0.7,2.7-1.4,4.8-1.5c0.1,0,0.2,0,0.3,0c5,0,17.2,6.5,19.3,11c0.5,1.1,0.2,1.7-0.1,2C82.1,84.2,70.6,94,51,94
		c-17.5,0-30.6-11.2-34.2-16.6c-0.6-0.9-0.7-1.8-0.3-2.8c1.3-3.3,7.9-7,17-9.3C34.2,65.2,34.8,65.1,35.3,65.1 M35.3,64.1
		c-0.6,0-1.2,0.1-2.1,0.3C21.6,67.4,12.6,72.9,16,78c4,6,17.3,17,35,17s30-8,37-16c4.1-4.7-13.4-14.7-19.9-14.7c-0.1,0-0.2,0-0.3,0
		c-5.4,0.3-5.8,3.8-14.7,3.8c-0.9,0-1.9,0-3-0.1C38.1,67.2,38.4,64.1,35.3,64.1L35.3,64.1z"/>
</g>
<g>
	<ellipse cx="52.5" cy="46" rx="16" ry="15.5"/>
	<path d="M52.5,31C61,31,68,37.7,68,46s-7,15-15.5,15S37,54.3,37,46S44,31,52.5,31 M52.5,30C43.4,30,36,37.2,36,46s7.4,16,16.5,16
		S69,54.8,69,46S61.6,30,52.5,30L52.5,30z"/>
</g>
</svg>
